solid Default
  facet normal 0.000000e+00 0.000000e+00 1.000000e+00
    outer loop
      vertex -8.092519e-01 -6.790426e-01 4.225611e+00
      vertex -9.148714e-01 -5.282014e-01 4.225611e+00
      vertex -4.225611e+00 -2.439658e+00 4.225611e+00
    endloop
  endfacet
  facet normal 0.000000e+00 0.000000e+00 1.000000e+00
    outer loop
      vertex -4.225611e+00 -2.439658e+00 4.225611e+00
      vertex -9.148714e-01 -5.282014e-01 4.225611e+00
      vertex -9.926941e-01 -3.613109e-01 4.225611e+00
    endloop
  endfacet
  facet normal 0.000000e+00 0.000000e+00 1.000000e+00
    outer loop
      vertex 8.092514e-01 6.790426e-01 4.225611e+00
      vertex 9.148714e-01 5.282014e-01 4.225611e+00
      vertex 4.225611e+00 2.439658e+00 4.225611e+00
    endloop
  endfacet
  facet normal 0.000000e+00 0.000000e+00 1.000000e+00
    outer loop
      vertex 4.225611e+00 2.439658e+00 4.225611e+00
      vertex 9.148714e-01 5.282014e-01 4.225611e+00
      vertex 9.926937e-01 3.613109e-01 4.225611e+00
    endloop
  endfacet
  facet normal 0.000000e+00 0.000000e+00 1.000000e+00
    outer loop
      vertex -9.926941e-01 3.613109e-01 4.225611e+00
      vertex -9.148714e-01 5.282014e-01 4.225611e+00
      vertex -4.225611e+00 2.439658e+00 4.225611e+00
    endloop
  endfacet
  facet normal 0.000000e+00 0.000000e+00 1.000000e+00
    outer loop
      vertex -3.613109e-01 9.926941e-01 4.225611e+00
      vertex -1.834423e-01 1.040353e+00 4.225611e+00
      vertex 0.000000e+00 4.879318e+00 4.225611e+00
    endloop
  endfacet
  facet normal 0.000000e+00 0.000000e+00 1.000000e+00
    outer loop
      vertex 0.000000e+00 4.879318e+00 4.225611e+00
      vertex -1.834423e-01 1.040353e+00 4.225611e+00
      vertex 0.000000e+00 1.056403e+00 4.225611e+00
    endloop
  endfacet
  facet normal 0.000000e+00 0.000000e+00 1.000000e+00
    outer loop
      vertex 0.000000e+00 4.879318e+00 4.225611e+00
      vertex 0.000000e+00 1.056403e+00 4.225611e+00
      vertex 1.834423e-01 1.040353e+00 4.225611e+00
    endloop
  endfacet
  facet normal 0.000000e+00 0.000000e+00 1.000000e+00
    outer loop
      vertex 1.834423e-01 1.040353e+00 4.225611e+00
      vertex 3.613109e-01 9.926941e-01 4.225611e+00
      vertex 0.000000e+00 4.879318e+00 4.225611e+00
    endloop
  endfacet
  facet normal 0.000000e+00 0.000000e+00 1.000000e+00
    outer loop
      vertex 0.000000e+00 4.879318e+00 4.225611e+00
      vertex 3.613109e-01 9.926941e-01 4.225611e+00
      vertex 5.282010e-01 9.148714e-01 4.225611e+00
    endloop
  endfacet
  facet normal 0.000000e+00 0.000000e+00 1.000000e+00
    outer loop
      vertex 0.000000e+00 4.879318e+00 4.225611e+00
      vertex 5.282010e-01 9.148714e-01 4.225611e+00
      vertex 4.225611e+00 2.439658e+00 4.225611e+00
    endloop
  endfacet
  facet normal 0.000000e+00 0.000000e+00 1.000000e+00
    outer loop
      vertex 4.225611e+00 2.439658e+00 4.225611e+00
      vertex 5.282010e-01 9.148714e-01 4.225611e+00
      vertex 6.790426e-01 8.092519e-01 4.225611e+00
    endloop
  endfacet
  facet normal 0.000000e+00 0.000000e+00 1.000000e+00
    outer loop
      vertex 4.225611e+00 2.439658e+00 4.225611e+00
      vertex 6.790426e-01 8.092519e-01 4.225611e+00
      vertex 8.092514e-01 6.790426e-01 4.225611e+00
    endloop
  endfacet
  facet normal 0.000000e+00 0.000000e+00 1.000000e+00
    outer loop
      vertex 9.926937e-01 -3.613109e-01 4.225611e+00
      vertex 9.148714e-01 -5.282014e-01 4.225611e+00
      vertex 4.225611e+00 -2.439658e+00 4.225611e+00
    endloop
  endfacet
  facet normal 0.000000e+00 0.000000e+00 1.000000e+00
    outer loop
      vertex 4.225611e+00 -2.439658e+00 4.225611e+00
      vertex 9.148714e-01 -5.282014e-01 4.225611e+00
      vertex 8.092514e-01 -6.790426e-01 4.225611e+00
    endloop
  endfacet
  facet normal 0.000000e+00 0.000000e+00 1.000000e+00
    outer loop
      vertex 9.926937e-01 3.613109e-01 4.225611e+00
      vertex 1.040353e+00 1.834423e-01 4.225611e+00
      vertex 4.225611e+00 2.439658e+00 4.225611e+00
    endloop
  endfacet
  facet normal 0.000000e+00 0.000000e+00 1.000000e+00
    outer loop
      vertex 4.225611e+00 2.439658e+00 4.225611e+00
      vertex 1.040353e+00 1.834423e-01 4.225611e+00
      vertex 1.056402e+00 0.000000e+00 4.225611e+00
    endloop
  endfacet
  facet normal 0.000000e+00 0.000000e+00 1.000000e+00
    outer loop
      vertex 4.225611e+00 2.439658e+00 4.225611e+00
      vertex 1.056402e+00 0.000000e+00 4.225611e+00
      vertex 4.225611e+00 -2.439658e+00 4.225611e+00
    endloop
  endfacet
  facet normal 0.000000e+00 0.000000e+00 1.000000e+00
    outer loop
      vertex 4.225611e+00 -2.439658e+00 4.225611e+00
      vertex 1.056402e+00 0.000000e+00 4.225611e+00
      vertex 1.040353e+00 -1.834423e-01 4.225611e+00
    endloop
  endfacet
  facet normal 0.000000e+00 0.000000e+00 1.000000e+00
    outer loop
      vertex 4.225611e+00 -2.439658e+00 4.225611e+00
      vertex 1.040353e+00 -1.834423e-01 4.225611e+00
      vertex 9.926937e-01 -3.613109e-01 4.225611e+00
    endloop
  endfacet
  facet normal 0.000000e+00 0.000000e+00 1.000000e+00
    outer loop
      vertex 3.613109e-01 -9.926941e-01 4.225611e+00
      vertex 0.000000e+00 -4.879318e+00 4.225611e+00
      vertex 5.282010e-01 -9.148714e-01 4.225611e+00
    endloop
  endfacet
  facet normal 0.000000e+00 0.000000e+00 1.000000e+00
    outer loop
      vertex 5.282010e-01 -9.148714e-01 4.225611e+00
      vertex 0.000000e+00 -4.879318e+00 4.225611e+00
      vertex 4.225611e+00 -2.439658e+00 4.225611e+00
    endloop
  endfacet
  facet normal 0.000000e+00 0.000000e+00 1.000000e+00
    outer loop
      vertex 5.282010e-01 -9.148714e-01 4.225611e+00
      vertex 4.225611e+00 -2.439658e+00 4.225611e+00
      vertex 6.790426e-01 -8.092519e-01 4.225611e+00
    endloop
  endfacet
  facet normal 0.000000e+00 0.000000e+00 1.000000e+00
    outer loop
      vertex 6.790426e-01 -8.092519e-01 4.225611e+00
      vertex 4.225611e+00 -2.439658e+00 4.225611e+00
      vertex 8.092514e-01 -6.790426e-01 4.225611e+00
    endloop
  endfacet
  facet normal 0.000000e+00 0.000000e+00 1.000000e+00
    outer loop
      vertex -9.926941e-01 -3.613109e-01 4.225611e+00
      vertex -1.040353e+00 -1.834423e-01 4.225611e+00
      vertex -4.225611e+00 -2.439658e+00 4.225611e+00
    endloop
  endfacet
  facet normal 0.000000e+00 0.000000e+00 1.000000e+00
    outer loop
      vertex -4.225611e+00 -2.439658e+00 4.225611e+00
      vertex -1.040353e+00 -1.834423e-01 4.225611e+00
      vertex -1.056403e+00 0.000000e+00 4.225611e+00
    endloop
  endfacet
  facet normal 0.000000e+00 0.000000e+00 1.000000e+00
    outer loop
      vertex -4.225611e+00 -2.439658e+00 4.225611e+00
      vertex -1.056403e+00 0.000000e+00 4.225611e+00
      vertex -4.225611e+00 2.439658e+00 4.225611e+00
    endloop
  endfacet
  facet normal 0.000000e+00 0.000000e+00 1.000000e+00
    outer loop
      vertex -4.225611e+00 2.439658e+00 4.225611e+00
      vertex -1.056403e+00 0.000000e+00 4.225611e+00
      vertex -1.040353e+00 1.834423e-01 4.225611e+00
    endloop
  endfacet
  facet normal 0.000000e+00 0.000000e+00 1.000000e+00
    outer loop
      vertex -4.225611e+00 2.439658e+00 4.225611e+00
      vertex -1.040353e+00 1.834423e-01 4.225611e+00
      vertex -9.926941e-01 3.613109e-01 4.225611e+00
    endloop
  endfacet
  facet normal 0.000000e+00 0.000000e+00 1.000000e+00
    outer loop
      vertex -9.148714e-01 5.282014e-01 4.225611e+00
      vertex -8.092519e-01 6.790426e-01 4.225611e+00
      vertex -4.225611e+00 2.439658e+00 4.225611e+00
    endloop
  endfacet
  facet normal 0.000000e+00 0.000000e+00 1.000000e+00
    outer loop
      vertex -4.225611e+00 2.439658e+00 4.225611e+00
      vertex -8.092519e-01 6.790426e-01 4.225611e+00
      vertex -6.790430e-01 8.092519e-01 4.225611e+00
    endloop
  endfacet
  facet normal 0.000000e+00 0.000000e+00 1.000000e+00
    outer loop
      vertex -4.225611e+00 2.439658e+00 4.225611e+00
      vertex -6.790430e-01 8.092519e-01 4.225611e+00
      vertex 0.000000e+00 4.879318e+00 4.225611e+00
    endloop
  endfacet
  facet normal 0.000000e+00 0.000000e+00 1.000000e+00
    outer loop
      vertex 0.000000e+00 4.879318e+00 4.225611e+00
      vertex -6.790430e-01 8.092519e-01 4.225611e+00
      vertex -5.282014e-01 9.148714e-01 4.225611e+00
    endloop
  endfacet
  facet normal 0.000000e+00 0.000000e+00 1.000000e+00
    outer loop
      vertex 0.000000e+00 4.879318e+00 4.225611e+00
      vertex -5.282014e-01 9.148714e-01 4.225611e+00
      vertex -3.613109e-01 9.926941e-01 4.225611e+00
    endloop
  endfacet
  facet normal 0.000000e+00 0.000000e+00 1.000000e+00
    outer loop
      vertex 3.613109e-01 -9.926941e-01 4.225611e+00
      vertex 1.834423e-01 -1.040353e+00 4.225611e+00
      vertex 0.000000e+00 -4.879318e+00 4.225611e+00
    endloop
  endfacet
  facet normal 0.000000e+00 0.000000e+00 1.000000e+00
    outer loop
      vertex 0.000000e+00 -4.879318e+00 4.225611e+00
      vertex 1.834423e-01 -1.040353e+00 4.225611e+00
      vertex 0.000000e+00 -1.056403e+00 4.225611e+00
    endloop
  endfacet
  facet normal 0.000000e+00 0.000000e+00 1.000000e+00
    outer loop
      vertex 0.000000e+00 -4.879318e+00 4.225611e+00
      vertex 0.000000e+00 -1.056403e+00 4.225611e+00
      vertex -1.834423e-01 -1.040353e+00 4.225611e+00
    endloop
  endfacet
  facet normal 0.000000e+00 0.000000e+00 1.000000e+00
    outer loop
      vertex -1.834423e-01 -1.040353e+00 4.225611e+00
      vertex -3.613109e-01 -9.926941e-01 4.225611e+00
      vertex 0.000000e+00 -4.879318e+00 4.225611e+00
    endloop
  endfacet
  facet normal 0.000000e+00 0.000000e+00 1.000000e+00
    outer loop
      vertex 0.000000e+00 -4.879318e+00 4.225611e+00
      vertex -3.613109e-01 -9.926941e-01 4.225611e+00
      vertex -5.282014e-01 -9.148714e-01 4.225611e+00
    endloop
  endfacet
  facet normal 0.000000e+00 0.000000e+00 1.000000e+00
    outer loop
      vertex 0.000000e+00 -4.879318e+00 4.225611e+00
      vertex -5.282014e-01 -9.148714e-01 4.225611e+00
      vertex -4.225611e+00 -2.439658e+00 4.225611e+00
    endloop
  endfacet
  facet normal 0.000000e+00 0.000000e+00 1.000000e+00
    outer loop
      vertex -4.225611e+00 -2.439658e+00 4.225611e+00
      vertex -5.282014e-01 -9.148714e-01 4.225611e+00
      vertex -6.790430e-01 -8.092519e-01 4.225611e+00
    endloop
  endfacet
  facet normal 0.000000e+00 0.000000e+00 1.000000e+00
    outer loop
      vertex -4.225611e+00 -2.439658e+00 4.225611e+00
      vertex -6.790430e-01 -8.092519e-01 4.225611e+00
      vertex -8.092519e-01 -6.790426e-01 4.225611e+00
    endloop
  endfacet
  facet normal 0.000000e+00 0.000000e+00 -1.000000e+00
    outer loop
      vertex -8.092519e-01 6.790426e-01 1.466053e-15
      vertex -9.148714e-01 5.282014e-01 1.466053e-15
      vertex -4.225611e+00 2.439658e+00 1.466053e-15
    endloop
  endfacet
  facet normal 0.000000e+00 0.000000e+00 -1.000000e+00
    outer loop
      vertex -1.040353e+00 -1.834423e-01 1.466053e-15
      vertex -9.926941e-01 -3.613109e-01 1.466053e-15
      vertex -4.225611e+00 -2.439658e+00 1.466053e-15
    endloop
  endfacet
  facet normal 0.000000e+00 0.000000e+00 -1.000000e+00
    outer loop
      vertex -4.225611e+00 -2.439658e+00 1.466053e-15
      vertex -9.926941e-01 -3.613109e-01 1.466053e-15
      vertex -9.148714e-01 -5.282014e-01 1.466053e-15
    endloop
  endfacet
  facet normal 0.000000e+00 0.000000e+00 -1.000000e+00
    outer loop
      vertex -9.148714e-01 5.282014e-01 1.466053e-15
      vertex -9.926941e-01 3.613109e-01 1.466053e-15
      vertex -4.225611e+00 2.439658e+00 1.466053e-15
    endloop
  endfacet
  facet normal 0.000000e+00 0.000000e+00 -1.000000e+00
    outer loop
      vertex -4.225611e+00 2.439658e+00 1.466053e-15
      vertex -9.926941e-01 3.613109e-01 1.466053e-15
      vertex -1.040353e+00 1.834423e-01 1.466053e-15
    endloop
  endfacet
  facet normal 0.000000e+00 0.000000e+00 -1.000000e+00
    outer loop
      vertex -4.225611e+00 2.439658e+00 1.466053e-15
      vertex -1.040353e+00 1.834423e-01 1.466053e-15
      vertex -4.225611e+00 -2.439658e+00 1.466053e-15
    endloop
  endfacet
  facet normal 0.000000e+00 0.000000e+00 -1.000000e+00
    outer loop
      vertex -4.225611e+00 -2.439658e+00 1.466053e-15
      vertex -1.040353e+00 1.834423e-01 1.466053e-15
      vertex -1.056403e+00 0.000000e+00 1.466053e-15
    endloop
  endfacet
  facet normal 0.000000e+00 0.000000e+00 -1.000000e+00
    outer loop
      vertex -4.225611e+00 -2.439658e+00 1.466053e-15
      vertex -1.056403e+00 0.000000e+00 1.466053e-15
      vertex -1.040353e+00 -1.834423e-01 1.466053e-15
    endloop
  endfacet
  facet normal 0.000000e+00 0.000000e+00 -1.000000e+00
    outer loop
      vertex 9.926937e-01 3.613109e-01 1.466053e-15
      vertex 9.148714e-01 5.282014e-01 1.466053e-15
      vertex 4.225611e+00 2.439658e+00 1.466053e-15
    endloop
  endfacet
  facet normal 0.000000e+00 0.000000e+00 -1.000000e+00
    outer loop
      vertex 3.613109e-01 9.926941e-01 1.466053e-15
      vertex 1.834423e-01 1.040353e+00 1.466053e-15
      vertex 0.000000e+00 4.879318e+00 1.466053e-15
    endloop
  endfacet
  facet normal 0.000000e+00 0.000000e+00 -1.000000e+00
    outer loop
      vertex 0.000000e+00 4.879318e+00 1.466053e-15
      vertex 1.834423e-01 1.040353e+00 1.466053e-15
      vertex 0.000000e+00 1.056403e+00 1.466053e-15
    endloop
  endfacet
  facet normal 0.000000e+00 0.000000e+00 -1.000000e+00
    outer loop
      vertex 0.000000e+00 4.879318e+00 1.466053e-15
      vertex 0.000000e+00 1.056403e+00 1.466053e-15
      vertex -1.834423e-01 1.040353e+00 1.466053e-15
    endloop
  endfacet
  facet normal 0.000000e+00 0.000000e+00 -1.000000e+00
    outer loop
      vertex -1.834423e-01 1.040353e+00 1.466053e-15
      vertex -3.613109e-01 9.926941e-01 1.466053e-15
      vertex 0.000000e+00 4.879318e+00 1.466053e-15
    endloop
  endfacet
  facet normal 0.000000e+00 0.000000e+00 -1.000000e+00
    outer loop
      vertex 0.000000e+00 4.879318e+00 1.466053e-15
      vertex -3.613109e-01 9.926941e-01 1.466053e-15
      vertex -5.282014e-01 9.148714e-01 1.466053e-15
    endloop
  endfacet
  facet normal 0.000000e+00 0.000000e+00 -1.000000e+00
    outer loop
      vertex 0.000000e+00 4.879318e+00 1.466053e-15
      vertex -5.282014e-01 9.148714e-01 1.466053e-15
      vertex -4.225611e+00 2.439658e+00 1.466053e-15
    endloop
  endfacet
  facet normal 0.000000e+00 0.000000e+00 -1.000000e+00
    outer loop
      vertex -4.225611e+00 2.439658e+00 1.466053e-15
      vertex -5.282014e-01 9.148714e-01 1.466053e-15
      vertex -6.790430e-01 8.092519e-01 1.466053e-15
    endloop
  endfacet
  facet normal 0.000000e+00 0.000000e+00 -1.000000e+00
    outer loop
      vertex -4.225611e+00 2.439658e+00 1.466053e-15
      vertex -6.790430e-01 8.092519e-01 1.466053e-15
      vertex -8.092519e-01 6.790426e-01 1.466053e-15
    endloop
  endfacet
  facet normal 0.000000e+00 0.000000e+00 -1.000000e+00
    outer loop
      vertex 9.148714e-01 5.282014e-01 1.466053e-15
      vertex 8.092514e-01 6.790426e-01 1.466053e-15
      vertex 4.225611e+00 2.439658e+00 1.466053e-15
    endloop
  endfacet
  facet normal 0.000000e+00 0.000000e+00 -1.000000e+00
    outer loop
      vertex 4.225611e+00 2.439658e+00 1.466053e-15
      vertex 8.092514e-01 6.790426e-01 1.466053e-15
      vertex 6.790426e-01 8.092519e-01 1.466053e-15
    endloop
  endfacet
  facet normal 0.000000e+00 0.000000e+00 -1.000000e+00
    outer loop
      vertex 4.225611e+00 2.439658e+00 1.466053e-15
      vertex 6.790426e-01 8.092519e-01 1.466053e-15
      vertex 0.000000e+00 4.879318e+00 1.466053e-15
    endloop
  endfacet
  facet normal 0.000000e+00 0.000000e+00 -1.000000e+00
    outer loop
      vertex 0.000000e+00 4.879318e+00 1.466053e-15
      vertex 6.790426e-01 8.092519e-01 1.466053e-15
      vertex 5.282010e-01 9.148714e-01 1.466053e-15
    endloop
  endfacet
  facet normal 0.000000e+00 0.000000e+00 -1.000000e+00
    outer loop
      vertex 0.000000e+00 4.879318e+00 1.466053e-15
      vertex 5.282010e-01 9.148714e-01 1.466053e-15
      vertex 3.613109e-01 9.926941e-01 1.466053e-15
    endloop
  endfacet
  facet normal 0.000000e+00 0.000000e+00 -1.000000e+00
    outer loop
      vertex -5.282014e-01 -9.148714e-01 1.466053e-15
      vertex 0.000000e+00 -4.879318e+00 1.466053e-15
      vertex -6.790430e-01 -8.092519e-01 1.466053e-15
    endloop
  endfacet
  facet normal 0.000000e+00 0.000000e+00 -1.000000e+00
    outer loop
      vertex -6.790430e-01 -8.092519e-01 1.466053e-15
      vertex 0.000000e+00 -4.879318e+00 1.466053e-15
      vertex -4.225611e+00 -2.439658e+00 1.466053e-15
    endloop
  endfacet
  facet normal 0.000000e+00 0.000000e+00 -1.000000e+00
    outer loop
      vertex -6.790430e-01 -8.092519e-01 1.466053e-15
      vertex -4.225611e+00 -2.439658e+00 1.466053e-15
      vertex -8.092519e-01 -6.790426e-01 1.466053e-15
    endloop
  endfacet
  facet normal 0.000000e+00 0.000000e+00 -1.000000e+00
    outer loop
      vertex -8.092519e-01 -6.790426e-01 1.466053e-15
      vertex -4.225611e+00 -2.439658e+00 1.466053e-15
      vertex -9.148714e-01 -5.282014e-01 1.466053e-15
    endloop
  endfacet
  facet normal 0.000000e+00 0.000000e+00 -1.000000e+00
    outer loop
      vertex 6.790426e-01 -8.092519e-01 1.466053e-15
      vertex 8.092514e-01 -6.790426e-01 1.466053e-15
      vertex 4.225611e+00 -2.439658e+00 1.466053e-15
    endloop
  endfacet
  facet normal 0.000000e+00 0.000000e+00 -1.000000e+00
    outer loop
      vertex 4.225611e+00 -2.439658e+00 1.466053e-15
      vertex 8.092514e-01 -6.790426e-01 1.466053e-15
      vertex 9.148714e-01 -5.282014e-01 1.466053e-15
    endloop
  endfacet
  facet normal 0.000000e+00 0.000000e+00 -1.000000e+00
    outer loop
      vertex 4.225611e+00 -2.439658e+00 1.466053e-15
      vertex 9.148714e-01 -5.282014e-01 1.466053e-15
      vertex 9.926937e-01 -3.613109e-01 1.466053e-15
    endloop
  endfacet
  facet normal 0.000000e+00 0.000000e+00 -1.000000e+00
    outer loop
      vertex -5.282014e-01 -9.148714e-01 1.466053e-15
      vertex -3.613109e-01 -9.926941e-01 1.466053e-15
      vertex 0.000000e+00 -4.879318e+00 1.466053e-15
    endloop
  endfacet
  facet normal 0.000000e+00 0.000000e+00 -1.000000e+00
    outer loop
      vertex 0.000000e+00 -4.879318e+00 1.466053e-15
      vertex -3.613109e-01 -9.926941e-01 1.466053e-15
      vertex -1.834423e-01 -1.040353e+00 1.466053e-15
    endloop
  endfacet
  facet normal 0.000000e+00 0.000000e+00 -1.000000e+00
    outer loop
      vertex 0.000000e+00 -4.879318e+00 1.466053e-15
      vertex -1.834423e-01 -1.040353e+00 1.466053e-15
      vertex 0.000000e+00 -1.056403e+00 1.466053e-15
    endloop
  endfacet
  facet normal 0.000000e+00 0.000000e+00 -1.000000e+00
    outer loop
      vertex 9.926937e-01 -3.613109e-01 1.466053e-15
      vertex 1.040353e+00 -1.834423e-01 1.466053e-15
      vertex 4.225611e+00 -2.439658e+00 1.466053e-15
    endloop
  endfacet
  facet normal 0.000000e+00 0.000000e+00 -1.000000e+00
    outer loop
      vertex 4.225611e+00 -2.439658e+00 1.466053e-15
      vertex 1.040353e+00 -1.834423e-01 1.466053e-15
      vertex 1.056402e+00 0.000000e+00 1.466053e-15
    endloop
  endfacet
  facet normal 0.000000e+00 0.000000e+00 -1.000000e+00
    outer loop
      vertex 4.225611e+00 -2.439658e+00 1.466053e-15
      vertex 1.056402e+00 0.000000e+00 1.466053e-15
      vertex 4.225611e+00 2.439658e+00 1.466053e-15
    endloop
  endfacet
  facet normal 0.000000e+00 0.000000e+00 -1.000000e+00
    outer loop
      vertex 4.225611e+00 2.439658e+00 1.466053e-15
      vertex 1.056402e+00 0.000000e+00 1.466053e-15
      vertex 1.040353e+00 1.834423e-01 1.466053e-15
    endloop
  endfacet
  facet normal 0.000000e+00 0.000000e+00 -1.000000e+00
    outer loop
      vertex 4.225611e+00 2.439658e+00 1.466053e-15
      vertex 1.040353e+00 1.834423e-01 1.466053e-15
      vertex 9.926937e-01 3.613109e-01 1.466053e-15
    endloop
  endfacet
  facet normal 0.000000e+00 0.000000e+00 -1.000000e+00
    outer loop
      vertex 0.000000e+00 -1.056403e+00 1.466053e-15
      vertex 1.834423e-01 -1.040353e+00 1.466053e-15
      vertex 0.000000e+00 -4.879318e+00 1.466053e-15
    endloop
  endfacet
  facet normal 0.000000e+00 0.000000e+00 -1.000000e+00
    outer loop
      vertex 0.000000e+00 -4.879318e+00 1.466053e-15
      vertex 1.834423e-01 -1.040353e+00 1.466053e-15
      vertex 3.613109e-01 -9.926941e-01 1.466053e-15
    endloop
  endfacet
  facet normal 0.000000e+00 0.000000e+00 -1.000000e+00
    outer loop
      vertex 0.000000e+00 -4.879318e+00 1.466053e-15
      vertex 3.613109e-01 -9.926941e-01 1.466053e-15
      vertex 4.225611e+00 -2.439658e+00 1.466053e-15
    endloop
  endfacet
  facet normal 0.000000e+00 0.000000e+00 -1.000000e+00
    outer loop
      vertex 4.225611e+00 -2.439658e+00 1.466053e-15
      vertex 3.613109e-01 -9.926941e-01 1.466053e-15
      vertex 5.282010e-01 -9.148714e-01 1.466053e-15
    endloop
  endfacet
  facet normal 0.000000e+00 0.000000e+00 -1.000000e+00
    outer loop
      vertex 4.225611e+00 -2.439658e+00 1.466053e-15
      vertex 5.282010e-01 -9.148714e-01 1.466053e-15
      vertex 6.790426e-01 -8.092519e-01 1.466053e-15
    endloop
  endfacet
  facet normal 5.000000e-01 -8.660254e-01 0.000000e+00
    outer loop
      vertex 4.225611e+00 -2.439658e+00 4.225611e+00
      vertex 0.000000e+00 -4.879318e+00 4.225611e+00
      vertex 4.225611e+00 -2.439658e+00 1.466053e-15
    endloop
  endfacet
  facet normal 5.000000e-01 -8.660254e-01 0.000000e+00
    outer loop
      vertex 4.225611e+00 -2.439658e+00 1.466053e-15
      vertex 0.000000e+00 -4.879318e+00 4.225611e+00
      vertex 0.000000e+00 -4.879318e+00 1.466053e-15
    endloop
  endfacet
  facet normal 1.000000e+00 1.502315e-16 0.000000e+00
    outer loop
      vertex 4.225611e+00 2.439658e+00 4.225611e+00
      vertex 4.225611e+00 -2.439658e+00 4.225611e+00
      vertex 4.225611e+00 2.439658e+00 1.466053e-15
    endloop
  endfacet
  facet normal 1.000000e+00 1.502315e-16 0.000000e+00
    outer loop
      vertex 4.225611e+00 2.439658e+00 1.466053e-15
      vertex 4.225611e+00 -2.439658e+00 4.225611e+00
      vertex 4.225611e+00 -2.439658e+00 1.466053e-15
    endloop
  endfacet
  facet normal 5.000000e-01 8.660254e-01 0.000000e+00
    outer loop
      vertex 0.000000e+00 4.879318e+00 4.225611e+00
      vertex 4.225611e+00 2.439658e+00 4.225611e+00
      vertex 0.000000e+00 4.879318e+00 1.466053e-15
    endloop
  endfacet
  facet normal 5.000000e-01 8.660254e-01 0.000000e+00
    outer loop
      vertex 0.000000e+00 4.879318e+00 1.466053e-15
      vertex 4.225611e+00 2.439658e+00 4.225611e+00
      vertex 4.225611e+00 2.439658e+00 1.466053e-15
    endloop
  endfacet
  facet normal -5.000000e-01 8.660254e-01 0.000000e+00
    outer loop
      vertex -4.225611e+00 2.439658e+00 4.225611e+00
      vertex 0.000000e+00 4.879318e+00 4.225611e+00
      vertex -4.225611e+00 2.439658e+00 0.000000e+00
    endloop
  endfacet
  facet normal -5.000000e-01 8.660254e-01 0.000000e+00
    outer loop
      vertex -4.225611e+00 2.439658e+00 0.000000e+00
      vertex 0.000000e+00 4.879318e+00 4.225611e+00
      vertex 0.000000e+00 4.879318e+00 0.000000e+00
    endloop
  endfacet
  facet normal -1.000000e+00 1.502315e-16 0.000000e+00
    outer loop
      vertex -4.225611e+00 -2.439658e+00 4.225611e+00
      vertex -4.225611e+00 2.439658e+00 4.225611e+00
      vertex -4.225611e+00 -2.439658e+00 1.466053e-15
    endloop
  endfacet
  facet normal -1.000000e+00 1.502315e-16 0.000000e+00
    outer loop
      vertex -4.225611e+00 -2.439658e+00 1.466053e-15
      vertex -4.225611e+00 2.439658e+00 4.225611e+00
      vertex -4.225611e+00 2.439658e+00 1.466053e-15
    endloop
  endfacet
  facet normal -5.000000e-01 -8.660254e-01 0.000000e+00
    outer loop
      vertex 0.000000e+00 -4.879318e+00 4.225611e+00
      vertex -4.225611e+00 -2.439658e+00 4.225611e+00
      vertex 0.000000e+00 -4.879318e+00 1.466053e-15
    endloop
  endfacet
  facet normal -5.000000e-01 -8.660254e-01 0.000000e+00
    outer loop
      vertex 0.000000e+00 -4.879318e+00 1.466053e-15
      vertex -4.225611e+00 -2.439658e+00 4.225611e+00
      vertex -4.225611e+00 -2.439658e+00 1.466053e-15
    endloop
  endfacet
  facet normal 9.983120e-01 5.807913e-02 0.000000e+00
    outer loop
      vertex -1.040353e+00 -1.834423e-01 4.225611e+00
      vertex -1.056403e+00 0.000000e+00 1.466053e-15
      vertex -1.056403e+00 0.000000e+00 4.225611e+00
    endloop
  endfacet
  facet normal 9.983120e-01 -5.807913e-02 0.000000e+00
    outer loop
      vertex -1.056403e+00 0.000000e+00 4.225611e+00
      vertex -1.056403e+00 0.000000e+00 1.466053e-15
      vertex -1.040353e+00 1.834423e-01 1.466053e-15
    endloop
  endfacet
  facet normal 9.932307e-01 -1.161583e-01 0.000000e+00
    outer loop
      vertex -1.056403e+00 0.000000e+00 4.225611e+00
      vertex -1.040353e+00 1.834423e-01 1.466053e-15
      vertex -1.040353e+00 1.834423e-01 4.225611e+00
    endloop
  endfacet
  facet normal 9.730601e-01 -2.305519e-01 0.000000e+00
    outer loop
      vertex -1.040353e+00 1.834423e-01 4.225611e+00
      vertex -1.040353e+00 1.834423e-01 1.466053e-15
      vertex -9.926941e-01 3.613109e-01 1.466053e-15
    endloop
  endfacet
  facet normal 9.579706e-01 -2.868663e-01 0.000000e+00
    outer loop
      vertex -1.040353e+00 1.834423e-01 4.225611e+00
      vertex -9.926941e-01 3.613109e-01 1.466053e-15
      vertex -9.926941e-01 3.613109e-01 4.225611e+00
    endloop
  endfacet
  facet normal 9.182422e-01 -3.960194e-01 0.000000e+00
    outer loop
      vertex -9.926941e-01 3.613109e-01 4.225611e+00
      vertex -9.926941e-01 3.613109e-01 1.466053e-15
      vertex -9.148714e-01 5.282014e-01 1.466053e-15
    endloop
  endfacet
  facet normal 8.936031e-01 -4.488580e-01 0.000000e+00
    outer loop
      vertex -9.926941e-01 3.613109e-01 4.225611e+00
      vertex -9.148714e-01 5.282014e-01 1.466053e-15
      vertex -9.148714e-01 5.282014e-01 4.225611e+00
    endloop
  endfacet
  facet normal 8.355240e-01 -5.494539e-01 0.000000e+00
    outer loop
      vertex -9.148714e-01 5.282014e-01 4.225611e+00
      vertex -9.148714e-01 5.282014e-01 1.466053e-15
      vertex -8.092519e-01 6.790426e-01 1.466053e-15
    endloop
  endfacet
  facet normal 8.020840e-01 -5.972114e-01 0.000000e+00
    outer loop
      vertex -9.148714e-01 5.282014e-01 4.225611e+00
      vertex -8.092519e-01 6.790426e-01 1.466053e-15
      vertex -8.092519e-01 6.790426e-01 4.225611e+00
    endloop
  endfacet
  facet normal 7.274188e-01 -6.861938e-01 0.000000e+00
    outer loop
      vertex -8.092519e-01 6.790426e-01 4.225611e+00
      vertex -8.092519e-01 6.790426e-01 1.466053e-15
      vertex -6.790430e-01 8.092519e-01 1.466053e-15
    endloop
  endfacet
  facet normal 6.861938e-01 -7.274188e-01 0.000000e+00
    outer loop
      vertex -8.092519e-01 6.790426e-01 4.225611e+00
      vertex -6.790430e-01 8.092519e-01 1.466053e-15
      vertex -6.790430e-01 8.092519e-01 4.225611e+00
    endloop
  endfacet
  facet normal 5.972114e-01 -8.020840e-01 0.000000e+00
    outer loop
      vertex -6.790430e-01 8.092519e-01 4.225611e+00
      vertex -6.790430e-01 8.092519e-01 1.466053e-15
      vertex -5.282014e-01 9.148714e-01 1.466053e-15
    endloop
  endfacet
  facet normal 5.494539e-01 -8.355240e-01 0.000000e+00
    outer loop
      vertex -6.790430e-01 8.092519e-01 4.225611e+00
      vertex -5.282014e-01 9.148714e-01 1.466053e-15
      vertex -5.282014e-01 9.148714e-01 4.225611e+00
    endloop
  endfacet
  facet normal 4.488580e-01 -8.936031e-01 0.000000e+00
    outer loop
      vertex -5.282014e-01 9.148714e-01 4.225611e+00
      vertex -5.282014e-01 9.148714e-01 1.466053e-15
      vertex -3.613109e-01 9.926941e-01 1.466053e-15
    endloop
  endfacet
  facet normal 3.960194e-01 -9.182422e-01 0.000000e+00
    outer loop
      vertex -5.282014e-01 9.148714e-01 4.225611e+00
      vertex -3.613109e-01 9.926941e-01 1.466053e-15
      vertex -3.613109e-01 9.926941e-01 4.225611e+00
    endloop
  endfacet
  facet normal 2.868663e-01 -9.579706e-01 0.000000e+00
    outer loop
      vertex -3.613109e-01 9.926941e-01 4.225611e+00
      vertex -3.613109e-01 9.926941e-01 1.466053e-15
      vertex -1.834423e-01 1.040353e+00 1.466053e-15
    endloop
  endfacet
  facet normal 2.305519e-01 -9.730601e-01 0.000000e+00
    outer loop
      vertex -3.613109e-01 9.926941e-01 4.225611e+00
      vertex -1.834423e-01 1.040353e+00 1.466053e-15
      vertex -1.834423e-01 1.040353e+00 4.225611e+00
    endloop
  endfacet
  facet normal 1.161583e-01 -9.932307e-01 0.000000e+00
    outer loop
      vertex -1.834423e-01 1.040353e+00 4.225611e+00
      vertex -1.834423e-01 1.040353e+00 1.466053e-15
      vertex 0.000000e+00 1.056403e+00 1.466053e-15
    endloop
  endfacet
  facet normal 5.807913e-02 -9.983120e-01 0.000000e+00
    outer loop
      vertex -1.834423e-01 1.040353e+00 4.225611e+00
      vertex 0.000000e+00 1.056403e+00 1.466053e-15
      vertex 0.000000e+00 1.056403e+00 4.225611e+00
    endloop
  endfacet
  facet normal -5.807913e-02 -9.983120e-01 0.000000e+00
    outer loop
      vertex 0.000000e+00 1.056403e+00 4.225611e+00
      vertex 0.000000e+00 1.056403e+00 1.466053e-15
      vertex 1.834423e-01 1.040353e+00 1.466053e-15
    endloop
  endfacet
  facet normal -1.161583e-01 -9.932307e-01 0.000000e+00
    outer loop
      vertex 0.000000e+00 1.056403e+00 4.225611e+00
      vertex 1.834423e-01 1.040353e+00 1.466053e-15
      vertex 1.834423e-01 1.040353e+00 4.225611e+00
    endloop
  endfacet
  facet normal -2.305519e-01 -9.730601e-01 0.000000e+00
    outer loop
      vertex 1.834423e-01 1.040353e+00 4.225611e+00
      vertex 1.834423e-01 1.040353e+00 1.466053e-15
      vertex 3.613109e-01 9.926941e-01 1.466053e-15
    endloop
  endfacet
  facet normal -2.868663e-01 -9.579706e-01 0.000000e+00
    outer loop
      vertex 1.834423e-01 1.040353e+00 4.225611e+00
      vertex 3.613109e-01 9.926941e-01 1.466053e-15
      vertex 3.613109e-01 9.926941e-01 4.225611e+00
    endloop
  endfacet
  facet normal -3.960194e-01 -9.182422e-01 0.000000e+00
    outer loop
      vertex 3.613109e-01 9.926941e-01 4.225611e+00
      vertex 3.613109e-01 9.926941e-01 1.466053e-15
      vertex 5.282010e-01 9.148714e-01 1.466053e-15
    endloop
  endfacet
  facet normal -4.488580e-01 -8.936031e-01 0.000000e+00
    outer loop
      vertex 3.613109e-01 9.926941e-01 4.225611e+00
      vertex 5.282010e-01 9.148714e-01 1.466053e-15
      vertex 5.282010e-01 9.148714e-01 4.225611e+00
    endloop
  endfacet
  facet normal -5.494539e-01 -8.355240e-01 0.000000e+00
    outer loop
      vertex 5.282010e-01 9.148714e-01 4.225611e+00
      vertex 5.282010e-01 9.148714e-01 1.466053e-15
      vertex 6.790426e-01 8.092519e-01 1.466053e-15
    endloop
  endfacet
  facet normal -5.972114e-01 -8.020840e-01 0.000000e+00
    outer loop
      vertex 5.282010e-01 9.148714e-01 4.225611e+00
      vertex 6.790426e-01 8.092519e-01 1.466053e-15
      vertex 6.790426e-01 8.092519e-01 4.225611e+00
    endloop
  endfacet
  facet normal -6.861938e-01 -7.274188e-01 0.000000e+00
    outer loop
      vertex 6.790426e-01 8.092519e-01 4.225611e+00
      vertex 6.790426e-01 8.092519e-01 1.466053e-15
      vertex 8.092514e-01 6.790426e-01 1.466053e-15
    endloop
  endfacet
  facet normal -7.274188e-01 -6.861938e-01 0.000000e+00
    outer loop
      vertex 6.790426e-01 8.092519e-01 4.225611e+00
      vertex 8.092514e-01 6.790426e-01 1.466053e-15
      vertex 8.092514e-01 6.790426e-01 4.225611e+00
    endloop
  endfacet
  facet normal -8.020840e-01 -5.972114e-01 0.000000e+00
    outer loop
      vertex 8.092514e-01 6.790426e-01 4.225611e+00
      vertex 8.092514e-01 6.790426e-01 1.466053e-15
      vertex 9.148714e-01 5.282014e-01 1.466053e-15
    endloop
  endfacet
  facet normal -8.355240e-01 -5.494539e-01 0.000000e+00
    outer loop
      vertex 8.092514e-01 6.790426e-01 4.225611e+00
      vertex 9.148714e-01 5.282014e-01 1.466053e-15
      vertex 9.148714e-01 5.282014e-01 4.225611e+00
    endloop
  endfacet
  facet normal -8.936031e-01 -4.488580e-01 0.000000e+00
    outer loop
      vertex 9.148714e-01 5.282014e-01 4.225611e+00
      vertex 9.148714e-01 5.282014e-01 1.466053e-15
      vertex 9.926937e-01 3.613109e-01 1.466053e-15
    endloop
  endfacet
  facet normal -9.182422e-01 -3.960194e-01 0.000000e+00
    outer loop
      vertex 9.148714e-01 5.282014e-01 4.225611e+00
      vertex 9.926937e-01 3.613109e-01 1.466053e-15
      vertex 9.926937e-01 3.613109e-01 4.225611e+00
    endloop
  endfacet
  facet normal -9.579706e-01 -2.868663e-01 0.000000e+00
    outer loop
      vertex 9.926937e-01 3.613109e-01 4.225611e+00
      vertex 9.926937e-01 3.613109e-01 1.466053e-15
      vertex 1.040353e+00 1.834423e-01 1.466053e-15
    endloop
  endfacet
  facet normal -9.730601e-01 -2.305519e-01 0.000000e+00
    outer loop
      vertex 9.926937e-01 3.613109e-01 4.225611e+00
      vertex 1.040353e+00 1.834423e-01 1.466053e-15
      vertex 1.040353e+00 1.834423e-01 4.225611e+00
    endloop
  endfacet
  facet normal -9.932307e-01 -1.161583e-01 0.000000e+00
    outer loop
      vertex 1.040353e+00 1.834423e-01 4.225611e+00
      vertex 1.040353e+00 1.834423e-01 1.466053e-15
      vertex 1.056402e+00 0.000000e+00 1.466053e-15
    endloop
  endfacet
  facet normal -9.983120e-01 -5.807913e-02 0.000000e+00
    outer loop
      vertex 1.040353e+00 1.834423e-01 4.225611e+00
      vertex 1.056402e+00 0.000000e+00 1.466053e-15
      vertex 1.056402e+00 0.000000e+00 4.225611e+00
    endloop
  endfacet
  facet normal -9.983120e-01 5.807913e-02 0.000000e+00
    outer loop
      vertex 1.056402e+00 0.000000e+00 4.225611e+00
      vertex 1.056402e+00 0.000000e+00 1.466053e-15
      vertex 1.040353e+00 -1.834423e-01 1.466053e-15
    endloop
  endfacet
  facet normal -9.932307e-01 1.161583e-01 0.000000e+00
    outer loop
      vertex 1.056402e+00 0.000000e+00 4.225611e+00
      vertex 1.040353e+00 -1.834423e-01 1.466053e-15
      vertex 1.040353e+00 -1.834423e-01 4.225611e+00
    endloop
  endfacet
  facet normal -9.730601e-01 2.305519e-01 0.000000e+00
    outer loop
      vertex 1.040353e+00 -1.834423e-01 4.225611e+00
      vertex 1.040353e+00 -1.834423e-01 1.466053e-15
      vertex 9.926937e-01 -3.613109e-01 1.466053e-15
    endloop
  endfacet
  facet normal -9.579706e-01 2.868663e-01 0.000000e+00
    outer loop
      vertex 1.040353e+00 -1.834423e-01 4.225611e+00
      vertex 9.926937e-01 -3.613109e-01 1.466053e-15
      vertex 9.926937e-01 -3.613109e-01 4.225611e+00
    endloop
  endfacet
  facet normal -9.182422e-01 3.960194e-01 0.000000e+00
    outer loop
      vertex 9.926937e-01 -3.613109e-01 4.225611e+00
      vertex 9.926937e-01 -3.613109e-01 1.466053e-15
      vertex 9.148714e-01 -5.282014e-01 1.466053e-15
    endloop
  endfacet
  facet normal -8.936031e-01 4.488580e-01 0.000000e+00
    outer loop
      vertex 9.926937e-01 -3.613109e-01 4.225611e+00
      vertex 9.148714e-01 -5.282014e-01 1.466053e-15
      vertex 9.148714e-01 -5.282014e-01 4.225611e+00
    endloop
  endfacet
  facet normal -8.355240e-01 5.494539e-01 0.000000e+00
    outer loop
      vertex 9.148714e-01 -5.282014e-01 4.225611e+00
      vertex 9.148714e-01 -5.282014e-01 1.466053e-15
      vertex 8.092514e-01 -6.790426e-01 1.466053e-15
    endloop
  endfacet
  facet normal -8.020840e-01 5.972114e-01 0.000000e+00
    outer loop
      vertex 9.148714e-01 -5.282014e-01 4.225611e+00
      vertex 8.092514e-01 -6.790426e-01 1.466053e-15
      vertex 8.092514e-01 -6.790426e-01 4.225611e+00
    endloop
  endfacet
  facet normal -7.274188e-01 6.861938e-01 0.000000e+00
    outer loop
      vertex 8.092514e-01 -6.790426e-01 4.225611e+00
      vertex 8.092514e-01 -6.790426e-01 1.466053e-15
      vertex 6.790426e-01 -8.092519e-01 1.466053e-15
    endloop
  endfacet
  facet normal -6.861938e-01 7.274188e-01 0.000000e+00
    outer loop
      vertex 8.092514e-01 -6.790426e-01 4.225611e+00
      vertex 6.790426e-01 -8.092519e-01 1.466053e-15
      vertex 6.790426e-01 -8.092519e-01 4.225611e+00
    endloop
  endfacet
  facet normal -5.972114e-01 8.020840e-01 0.000000e+00
    outer loop
      vertex 6.790426e-01 -8.092519e-01 4.225611e+00
      vertex 6.790426e-01 -8.092519e-01 1.466053e-15
      vertex 5.282010e-01 -9.148714e-01 1.466053e-15
    endloop
  endfacet
  facet normal -5.494539e-01 8.355240e-01 0.000000e+00
    outer loop
      vertex 6.790426e-01 -8.092519e-01 4.225611e+00
      vertex 5.282010e-01 -9.148714e-01 1.466053e-15
      vertex 5.282010e-01 -9.148714e-01 4.225611e+00
    endloop
  endfacet
  facet normal -4.488580e-01 8.936031e-01 0.000000e+00
    outer loop
      vertex 5.282010e-01 -9.148714e-01 4.225611e+00
      vertex 5.282010e-01 -9.148714e-01 1.466053e-15
      vertex 3.613109e-01 -9.926941e-01 1.466053e-15
    endloop
  endfacet
  facet normal -3.960194e-01 9.182422e-01 0.000000e+00
    outer loop
      vertex 5.282010e-01 -9.148714e-01 4.225611e+00
      vertex 3.613109e-01 -9.926941e-01 1.466053e-15
      vertex 3.613109e-01 -9.926941e-01 4.225611e+00
    endloop
  endfacet
  facet normal -2.868663e-01 9.579706e-01 0.000000e+00
    outer loop
      vertex 3.613109e-01 -9.926941e-01 4.225611e+00
      vertex 3.613109e-01 -9.926941e-01 1.466053e-15
      vertex 1.834423e-01 -1.040353e+00 1.466053e-15
    endloop
  endfacet
  facet normal -2.305519e-01 9.730601e-01 0.000000e+00
    outer loop
      vertex 3.613109e-01 -9.926941e-01 4.225611e+00
      vertex 1.834423e-01 -1.040353e+00 1.466053e-15
      vertex 1.834423e-01 -1.040353e+00 4.225611e+00
    endloop
  endfacet
  facet normal -1.161583e-01 9.932307e-01 0.000000e+00
    outer loop
      vertex 1.834423e-01 -1.040353e+00 4.225611e+00
      vertex 1.834423e-01 -1.040353e+00 1.466053e-15
      vertex 0.000000e+00 -1.056403e+00 1.466053e-15
    endloop
  endfacet
  facet normal -5.807913e-02 9.983120e-01 0.000000e+00
    outer loop
      vertex 1.834423e-01 -1.040353e+00 4.225611e+00
      vertex 0.000000e+00 -1.056403e+00 1.466053e-15
      vertex 0.000000e+00 -1.056403e+00 4.225611e+00
    endloop
  endfacet
  facet normal 5.807913e-02 9.983120e-01 0.000000e+00
    outer loop
      vertex 0.000000e+00 -1.056403e+00 4.225611e+00
      vertex 0.000000e+00 -1.056403e+00 1.466053e-15
      vertex -1.834423e-01 -1.040353e+00 1.466053e-15
    endloop
  endfacet
  facet normal 1.161583e-01 9.932307e-01 0.000000e+00
    outer loop
      vertex 0.000000e+00 -1.056403e+00 4.225611e+00
      vertex -1.834423e-01 -1.040353e+00 1.466053e-15
      vertex -1.834423e-01 -1.040353e+00 4.225611e+00
    endloop
  endfacet
  facet normal 2.305519e-01 9.730601e-01 0.000000e+00
    outer loop
      vertex -1.834423e-01 -1.040353e+00 4.225611e+00
      vertex -1.834423e-01 -1.040353e+00 1.466053e-15
      vertex -3.613109e-01 -9.926941e-01 1.466053e-15
    endloop
  endfacet
  facet normal 2.868663e-01 9.579706e-01 0.000000e+00
    outer loop
      vertex -1.834423e-01 -1.040353e+00 4.225611e+00
      vertex -3.613109e-01 -9.926941e-01 1.466053e-15
      vertex -3.613109e-01 -9.926941e-01 4.225611e+00
    endloop
  endfacet
  facet normal 3.960194e-01 9.182422e-01 0.000000e+00
    outer loop
      vertex -3.613109e-01 -9.926941e-01 4.225611e+00
      vertex -3.613109e-01 -9.926941e-01 1.466053e-15
      vertex -5.282014e-01 -9.148714e-01 1.466053e-15
    endloop
  endfacet
  facet normal 4.488580e-01 8.936031e-01 0.000000e+00
    outer loop
      vertex -3.613109e-01 -9.926941e-01 4.225611e+00
      vertex -5.282014e-01 -9.148714e-01 1.466053e-15
      vertex -5.282014e-01 -9.148714e-01 4.225611e+00
    endloop
  endfacet
  facet normal 5.494539e-01 8.355240e-01 0.000000e+00
    outer loop
      vertex -5.282014e-01 -9.148714e-01 4.225611e+00
      vertex -5.282014e-01 -9.148714e-01 1.466053e-15
      vertex -6.790430e-01 -8.092519e-01 1.466053e-15
    endloop
  endfacet
  facet normal 5.972114e-01 8.020840e-01 0.000000e+00
    outer loop
      vertex -5.282014e-01 -9.148714e-01 4.225611e+00
      vertex -6.790430e-01 -8.092519e-01 1.466053e-15
      vertex -6.790430e-01 -8.092519e-01 4.225611e+00
    endloop
  endfacet
  facet normal 6.861938e-01 7.274188e-01 0.000000e+00
    outer loop
      vertex -6.790430e-01 -8.092519e-01 4.225611e+00
      vertex -6.790430e-01 -8.092519e-01 1.466053e-15
      vertex -8.092519e-01 -6.790426e-01 1.466053e-15
    endloop
  endfacet
  facet normal 7.274188e-01 6.861938e-01 0.000000e+00
    outer loop
      vertex -6.790430e-01 -8.092519e-01 4.225611e+00
      vertex -8.092519e-01 -6.790426e-01 1.466053e-15
      vertex -8.092519e-01 -6.790426e-01 4.225611e+00
    endloop
  endfacet
  facet normal 8.020840e-01 5.972114e-01 0.000000e+00
    outer loop
      vertex -8.092519e-01 -6.790426e-01 4.225611e+00
      vertex -8.092519e-01 -6.790426e-01 1.466053e-15
      vertex -9.148714e-01 -5.282014e-01 1.466053e-15
    endloop
  endfacet
  facet normal 8.355240e-01 5.494539e-01 0.000000e+00
    outer loop
      vertex -8.092519e-01 -6.790426e-01 4.225611e+00
      vertex -9.148714e-01 -5.282014e-01 1.466053e-15
      vertex -9.148714e-01 -5.282014e-01 4.225611e+00
    endloop
  endfacet
  facet normal 8.936031e-01 4.488580e-01 0.000000e+00
    outer loop
      vertex -9.148714e-01 -5.282014e-01 4.225611e+00
      vertex -9.148714e-01 -5.282014e-01 1.466053e-15
      vertex -9.926941e-01 -3.613109e-01 1.466053e-15
    endloop
  endfacet
  facet normal 9.182422e-01 3.960194e-01 0.000000e+00
    outer loop
      vertex -9.148714e-01 -5.282014e-01 4.225611e+00
      vertex -9.926941e-01 -3.613109e-01 1.466053e-15
      vertex -9.926941e-01 -3.613109e-01 4.225611e+00
    endloop
  endfacet
  facet normal 9.579706e-01 2.868663e-01 0.000000e+00
    outer loop
      vertex -9.926941e-01 -3.613109e-01 4.225611e+00
      vertex -9.926941e-01 -3.613109e-01 1.466053e-15
      vertex -1.040353e+00 -1.834423e-01 1.466053e-15
    endloop
  endfacet
  facet normal 9.730601e-01 2.305519e-01 0.000000e+00
    outer loop
      vertex -9.926941e-01 -3.613109e-01 4.225611e+00
      vertex -1.040353e+00 -1.834423e-01 1.466053e-15
      vertex -1.040353e+00 -1.834423e-01 4.225611e+00
    endloop
  endfacet
  facet normal 9.932307e-01 1.161583e-01 0.000000e+00
    outer loop
      vertex -1.040353e+00 -1.834423e-01 4.225611e+00
      vertex -1.040353e+00 -1.834423e-01 1.466053e-15
      vertex -1.056403e+00 0.000000e+00 1.466053e-15
    endloop
  endfacet
endsolid Default
