solid Default
  facet normal 9.305050e-01 1.271705e-04 -3.662792e-01
    outer loop
      vertex 9.734053e+00 -2.662707e-03 3.710700e+01
      vertex 4.864719e+00 -8.425937e+00 2.473389e+01
      vertex 4.864722e+00 8.431267e+00 2.473976e+01
    endloop
  endfacet
  facet normal -4.653854e-01 8.060713e-01 -3.656027e-01
    outer loop
      vertex 4.864722e+00 8.431267e+00 2.473976e+01
      vertex -9.734053e+00 2.662066e-03 2.473976e+01
      vertex -4.864716e+00 8.425937e+00 3.711287e+01
    endloop
  endfacet
  facet normal -4.653627e-01 -8.057773e-01 -3.662792e-01
    outer loop
      vertex -9.734053e+00 2.662066e-03 2.473976e+01
      vertex 4.864719e+00 -8.425937e+00 2.473389e+01
      vertex -4.864722e+00 -8.431270e+00 3.710700e+01
    endloop
  endfacet
  facet normal 4.653627e-01 8.057773e-01 3.662792e-01
    outer loop
      vertex 9.734053e+00 -2.662707e-03 3.710700e+01
      vertex 4.864722e+00 8.431267e+00 2.473976e+01
      vertex -4.864716e+00 8.425937e+00 3.711287e+01
    endloop
  endfacet
  facet normal -9.305050e-01 -1.272438e-04 3.662792e-01
    outer loop
      vertex -9.734053e+00 2.662066e-03 2.473976e+01
      vertex -4.864722e+00 -8.431270e+00 3.710700e+01
      vertex -4.864716e+00 8.425937e+00 3.711287e+01
    endloop
  endfacet
  facet normal 4.653855e-01 -8.060713e-01 3.656028e-01
    outer loop
      vertex -4.864722e+00 -8.431270e+00 3.710700e+01
      vertex 4.864719e+00 -8.425937e+00 2.473389e+01
      vertex 9.734053e+00 -2.662707e-03 3.710700e+01
    endloop
  endfacet
  facet normal -9.430954e-01 -1.155372e-04 3.325223e-01
    outer loop
      vertex 4.131164e+00 7.160507e+00 2.497259e+01
      vertex 4.131160e+00 -7.155378e+00 2.496761e+01
      vertex 8.266761e+00 -2.561877e-03 3.669942e+01
    endloop
  endfacet
  facet normal 4.716706e-01 -8.169574e-01 3.318244e-01
    outer loop
      vertex -4.131160e+00 7.155378e+00 3.670443e+01
      vertex -8.266761e+00 2.561637e-03 2.497259e+01
      vertex 4.131164e+00 7.160507e+00 2.497259e+01
    endloop
  endfacet
  facet normal 4.716477e-01 8.166867e-01 3.325224e-01
    outer loop
      vertex -4.131164e+00 -7.160507e+00 3.669942e+01
      vertex 4.131160e+00 -7.155378e+00 2.496761e+01
      vertex -8.266761e+00 2.561637e-03 2.497259e+01
    endloop
  endfacet
  facet normal -4.716477e-01 -8.166867e-01 -3.325224e-01
    outer loop
      vertex -4.131160e+00 7.155378e+00 3.670443e+01
      vertex 4.131164e+00 7.160507e+00 2.497259e+01
      vertex 8.266761e+00 -2.561877e-03 3.669942e+01
    endloop
  endfacet
  facet normal 9.430954e-01 1.154777e-04 -3.325223e-01
    outer loop
      vertex -4.131160e+00 7.155378e+00 3.670443e+01
      vertex -4.131164e+00 -7.160507e+00 3.669942e+01
      vertex -8.266761e+00 2.561637e-03 2.497259e+01
    endloop
  endfacet
  facet normal -4.716706e-01 8.169575e-01 -3.318243e-01
    outer loop
      vertex 8.266761e+00 -2.561877e-03 3.669942e+01
      vertex 4.131160e+00 -7.155378e+00 2.496761e+01
      vertex -4.131164e+00 -7.160507e+00 3.669942e+01
    endloop
  endfacet
  facet normal -3.030483e-01 3.315929e-04 -9.529752e-01
    outer loop
      vertex 4.864722e+00 8.431267e+00 2.473976e+01
      vertex 4.864719e+00 -8.425937e+00 2.473389e+01
      vertex 4.131160e+00 -7.155378e+00 2.496761e+01
    endloop
  endfacet
  facet normal -3.030522e-01 3.317895e-04 -9.529739e-01
    outer loop
      vertex 4.131160e+00 -7.155378e+00 2.496761e+01
      vertex 4.131164e+00 7.160507e+00 2.497259e+01
      vertex 4.864722e+00 8.431267e+00 2.473976e+01
    endloop
  endfacet
  facet normal 1.512327e-01 -2.619428e-01 -9.531603e-01
    outer loop
      vertex -9.734053e+00 2.662066e-03 2.473976e+01
      vertex 4.864722e+00 8.431267e+00 2.473976e+01
      vertex 4.131164e+00 7.160507e+00 2.497259e+01
    endloop
  endfacet
  facet normal 1.512325e-01 -2.619424e-01 -9.531605e-01
    outer loop
      vertex 4.131164e+00 7.160507e+00 2.497259e+01
      vertex -8.266761e+00 2.561637e-03 2.497259e+01
      vertex -9.734053e+00 2.662066e-03 2.473976e+01
    endloop
  endfacet
  facet normal 1.512389e-01 2.626165e-01 -9.529740e-01
    outer loop
      vertex 4.864719e+00 -8.425937e+00 2.473389e+01
      vertex -9.734053e+00 2.662066e-03 2.473976e+01
      vertex -8.266761e+00 2.561637e-03 2.497259e+01
    endloop
  endfacet
  facet normal 1.512367e-01 2.626131e-01 -9.529752e-01
    outer loop
      vertex -8.266761e+00 2.561637e-03 2.497259e+01
      vertex 4.131160e+00 -7.155378e+00 2.496761e+01
      vertex 4.864719e+00 -8.425937e+00 2.473389e+01
    endloop
  endfacet
  facet normal -2.427761e-01 -4.211091e-01 8.739147e-01
    outer loop
      vertex 9.734053e+00 -2.662707e-03 3.710700e+01
      vertex -4.864716e+00 8.425937e+00 3.711287e+01
      vertex -4.131160e+00 7.155378e+00 3.670443e+01
    endloop
  endfacet
  facet normal -2.427753e-01 -4.211075e-01 8.739158e-01
    outer loop
      vertex -4.131160e+00 7.155378e+00 3.670443e+01
      vertex 8.266761e+00 -2.561877e-03 3.669942e+01
      vertex 9.734053e+00 -2.662707e-03 3.710700e+01
    endloop
  endfacet
  facet normal 4.860776e-01 -3.042626e-04 8.739156e-01
    outer loop
      vertex -4.864716e+00 8.425937e+00 3.711287e+01
      vertex -4.864722e+00 -8.431270e+00 3.710700e+01
      vertex -4.131164e+00 -7.160507e+00 3.669942e+01
    endloop
  endfacet
  facet normal 4.860794e-01 -3.041542e-04 8.739146e-01
    outer loop
      vertex -4.131164e+00 -7.160507e+00 3.669942e+01
      vertex -4.131160e+00 7.155378e+00 3.670443e+01
      vertex -4.864716e+00 8.425937e+00 3.711287e+01
    endloop
  endfacet
  facet normal -2.427933e-01 4.205303e-01 8.741887e-01
    outer loop
      vertex -4.864722e+00 -8.431270e+00 3.710700e+01
      vertex 9.734053e+00 -2.662707e-03 3.710700e+01
      vertex 8.266761e+00 -2.561877e-03 3.669942e+01
    endloop
  endfacet
  facet normal -2.427935e-01 4.205307e-01 8.741883e-01
    outer loop
      vertex 8.266761e+00 -2.561877e-03 3.669942e+01
      vertex -4.131164e+00 -7.160507e+00 3.669942e+01
      vertex -4.864722e+00 -8.431270e+00 3.710700e+01
    endloop
  endfacet
  facet normal 9.305051e-01 1.272411e-04 -3.662790e-01
    outer loop
      vertex 9.734050e+00 -2.661706e-03 1.237311e+01
      vertex 4.864716e+00 -8.425937e+00 0.000000e+00
      vertex 4.864719e+00 8.431270e+00 5.864131e-03
    endloop
  endfacet
  facet normal -4.653855e-01 8.060714e-01 -3.656026e-01
    outer loop
      vertex 4.864719e+00 8.431270e+00 5.864131e-03
      vertex -9.734050e+00 2.664667e-03 5.864131e-03
      vertex -4.864716e+00 8.425940e+00 1.237898e+01
    endloop
  endfacet
  facet normal -4.653628e-01 -8.057774e-01 -3.662790e-01
    outer loop
      vertex -9.734050e+00 2.664667e-03 5.864131e-03
      vertex 4.864716e+00 -8.425937e+00 0.000000e+00
      vertex -4.864719e+00 -8.431267e+00 1.237311e+01
    endloop
  endfacet
  facet normal 4.653628e-01 8.057774e-01 3.662790e-01
    outer loop
      vertex 9.734050e+00 -2.661706e-03 1.237311e+01
      vertex 4.864719e+00 8.431270e+00 5.864131e-03
      vertex -4.864716e+00 8.425940e+00 1.237898e+01
    endloop
  endfacet
  facet normal -9.305051e-01 -1.272412e-04 3.662789e-01
    outer loop
      vertex -9.734050e+00 2.664667e-03 5.864131e-03
      vertex -4.864719e+00 -8.431267e+00 1.237311e+01
      vertex -4.864716e+00 8.425940e+00 1.237898e+01
    endloop
  endfacet
  facet normal 4.653856e-01 -8.060713e-01 3.656026e-01
    outer loop
      vertex -4.864719e+00 -8.431267e+00 1.237311e+01
      vertex 4.864716e+00 -8.425937e+00 0.000000e+00
      vertex 9.734050e+00 -2.661706e-03 1.237311e+01
    endloop
  endfacet
  facet normal -2.008434e-04 3.478710e-04 -9.999999e-01
    outer loop
      vertex -9.734050e+00 2.664667e-03 5.864131e-03
      vertex 4.864719e+00 8.431270e+00 5.864131e-03
      vertex 4.864716e+00 -8.425937e+00 0.000000e+00
    endloop
  endfacet
  facet normal -9.471493e-01 -1.114009e-04 3.207931e-01
    outer loop
      vertex 4.256630e+00 7.377359e+00 7.788167e-01
      vertex 4.256627e+00 -7.372694e+00 7.736861e-01
      vertex 8.266761e+00 -2.561276e-03 1.261626e+01
    endloop
  endfacet
  facet normal 4.736876e-01 -8.204508e-01 3.201257e-01
    outer loop
      vertex -4.131157e+00 7.155378e+00 1.262125e+01
      vertex -8.517295e+00 2.331769e-03 7.788167e-01
      vertex 4.256630e+00 7.377359e+00 7.788167e-01
    endloop
  endfacet
  facet normal 4.736713e-01 8.201995e-01 3.207931e-01
    outer loop
      vertex -4.131160e+00 -7.160507e+00 1.261626e+01
      vertex 4.256627e+00 -7.372694e+00 7.736861e-01
      vertex -8.517295e+00 2.331769e-03 7.788167e-01
    endloop
  endfacet
  facet normal -4.689663e-01 -8.120322e-01 -3.473821e-01
    outer loop
      vertex -4.131157e+00 7.155378e+00 1.262125e+01
      vertex 4.256630e+00 7.377359e+00 7.788167e-01
      vertex 8.266761e+00 -2.561276e-03 1.261626e+01
    endloop
  endfacet
  facet normal 9.377236e-01 1.205968e-04 -3.473822e-01
    outer loop
      vertex -4.131157e+00 7.155378e+00 1.262125e+01
      vertex -4.131160e+00 -7.160507e+00 1.261626e+01
      vertex -8.517295e+00 2.331769e-03 7.788167e-01
    endloop
  endfacet
  facet normal -4.689838e-01 8.123036e-01 -3.467233e-01
    outer loop
      vertex 8.266761e+00 -2.561276e-03 1.261626e+01
      vertex 4.256627e+00 -7.372694e+00 7.736861e-01
      vertex -4.131160e+00 -7.160507e+00 1.261626e+01
    endloop
  endfacet
  facet normal 2.008278e-04 -3.478438e-04 9.999999e-01
    outer loop
      vertex 4.256627e+00 -7.372694e+00 7.736861e-01
      vertex 4.256630e+00 7.377359e+00 7.788167e-01
      vertex -8.517295e+00 2.331769e-03 7.788167e-01
    endloop
  endfacet
  facet normal 1.573434e-01 2.718664e-01 9.493849e-01
    outer loop
      vertex 9.734050e+00 -2.661706e-03 1.237311e+01
      vertex -4.864716e+00 8.425940e+00 1.237898e+01
      vertex -4.131157e+00 7.155378e+00 1.262125e+01
    endloop
  endfacet
  facet normal 1.573439e-01 2.718673e-01 9.493846e-01
    outer loop
      vertex -4.131157e+00 7.155378e+00 1.262125e+01
      vertex 8.266761e+00 -2.561276e-03 1.261626e+01
      vertex 9.734050e+00 -2.661706e-03 1.237311e+01
    endloop
  endfacet
  facet normal -3.141159e-01 -3.302037e-04 9.493846e-01
    outer loop
      vertex -4.864716e+00 8.425940e+00 1.237898e+01
      vertex -4.864719e+00 -8.431267e+00 1.237311e+01
      vertex -4.131160e+00 -7.160507e+00 1.261626e+01
    endloop
  endfacet
  facet normal -3.141147e-01 -3.301405e-04 9.493850e-01
    outer loop
      vertex -4.131160e+00 -7.160507e+00 1.261626e+01
      vertex -4.131157e+00 7.155378e+00 1.262125e+01
      vertex -4.864716e+00 8.425940e+00 1.237898e+01
    endloop
  endfacet
  facet normal 1.572821e-01 -2.724206e-01 9.492362e-01
    outer loop
      vertex -4.864719e+00 -8.431267e+00 1.237311e+01
      vertex 9.734050e+00 -2.661706e-03 1.237311e+01
      vertex 8.266761e+00 -2.561276e-03 1.261626e+01
    endloop
  endfacet
  facet normal 1.572822e-01 -2.724208e-01 9.492362e-01
    outer loop
      vertex 8.266761e+00 -2.561276e-03 1.261626e+01
      vertex -4.131160e+00 -7.160507e+00 1.261626e+01
      vertex -4.864719e+00 -8.431267e+00 1.237311e+01
    endloop
  endfacet
  facet normal -9.305050e-01 -1.272235e-04 -3.662791e-01
    outer loop
      vertex 9.734050e+00 -2.661106e-03 1.237274e+01
      vertex 4.864716e+00 -8.425937e+00 2.474585e+01
      vertex 4.864719e+00 8.431267e+00 2.473999e+01
    endloop
  endfacet
  facet normal 4.653855e-01 -8.060713e-01 -3.656027e-01
    outer loop
      vertex 4.864719e+00 8.431267e+00 2.473999e+01
      vertex -9.734053e+00 2.662066e-03 2.473999e+01
      vertex -4.864719e+00 8.425940e+00 1.236687e+01
    endloop
  endfacet
  facet normal 4.653628e-01 8.057774e-01 -3.662789e-01
    outer loop
      vertex -9.734053e+00 2.662066e-03 2.473999e+01
      vertex 4.864716e+00 -8.425937e+00 2.474585e+01
      vertex -4.864722e+00 -8.431267e+00 1.237274e+01
    endloop
  endfacet
  facet normal -4.653628e-01 -8.057774e-01 3.662789e-01
    outer loop
      vertex 9.734050e+00 -2.661106e-03 1.237274e+01
      vertex 4.864719e+00 8.431267e+00 2.473999e+01
      vertex -4.864719e+00 8.425940e+00 1.236687e+01
    endloop
  endfacet
  facet normal 9.305050e-01 1.272235e-04 3.662790e-01
    outer loop
      vertex -9.734053e+00 2.662066e-03 2.473999e+01
      vertex -4.864722e+00 -8.431267e+00 1.237274e+01
      vertex -4.864719e+00 8.425940e+00 1.236687e+01
    endloop
  endfacet
  facet normal -4.653855e-01 8.060713e-01 3.656027e-01
    outer loop
      vertex -4.864722e+00 -8.431267e+00 1.237274e+01
      vertex 4.864716e+00 -8.425937e+00 2.474585e+01
      vertex 9.734050e+00 -2.661106e-03 1.237274e+01
    endloop
  endfacet
  facet normal 9.485593e-01 1.098943e-04 3.165994e-01
    outer loop
      vertex 4.131160e+00 7.160507e+00 2.499370e+01
      vertex 4.131157e+00 -7.155378e+00 2.499869e+01
      vertex 8.266761e+00 -2.560676e-03 1.260557e+01
    endloop
  endfacet
  facet normal -4.743912e-01 8.216696e-01 3.159303e-01
    outer loop
      vertex -4.131160e+00 7.155378e+00 1.260059e+01
      vertex -8.266761e+00 2.562437e-03 2.499370e+01
      vertex 4.131160e+00 7.160507e+00 2.499370e+01
    endloop
  endfacet
  facet normal -4.743750e-01 -8.214216e-01 3.165992e-01
    outer loop
      vertex -4.131164e+00 -7.160504e+00 1.260557e+01
      vertex 4.131157e+00 -7.155378e+00 2.499869e+01
      vertex -8.266761e+00 2.562437e-03 2.499370e+01
    endloop
  endfacet
  facet normal 4.743749e-01 8.214216e-01 -3.165993e-01
    outer loop
      vertex -4.131160e+00 7.155378e+00 1.260059e+01
      vertex 4.131160e+00 7.160507e+00 2.499370e+01
      vertex 8.266761e+00 -2.560676e-03 1.260557e+01
    endloop
  endfacet
  facet normal -9.485594e-01 -1.099084e-04 -3.165993e-01
    outer loop
      vertex -4.131160e+00 7.155378e+00 1.260059e+01
      vertex -4.131164e+00 -7.160504e+00 1.260557e+01
      vertex -8.266761e+00 2.562437e-03 2.499370e+01
    endloop
  endfacet
  facet normal 4.743912e-01 -8.216696e-01 -3.159303e-01
    outer loop
      vertex 8.266761e+00 -2.560676e-03 1.260557e+01
      vertex 4.131157e+00 -7.155378e+00 2.499869e+01
      vertex -4.131164e+00 -7.160504e+00 1.260557e+01
    endloop
  endfacet
  facet normal -3.263614e-01 -3.287551e-04 -9.452450e-01
    outer loop
      vertex 4.864719e+00 8.431267e+00 2.473999e+01
      vertex 4.864716e+00 -8.425937e+00 2.474585e+01
      vertex 4.131157e+00 -7.155378e+00 2.499869e+01
    endloop
  endfacet
  facet normal -3.263611e-01 -3.287747e-04 -9.452451e-01
    outer loop
      vertex 4.131157e+00 -7.155378e+00 2.499869e+01
      vertex 4.131160e+00 7.160507e+00 2.499370e+01
      vertex 4.864719e+00 8.431267e+00 2.473999e+01
    endloop
  endfacet
  facet normal 1.634004e-01 -2.830177e-01 -9.450933e-01
    outer loop
      vertex -9.734053e+00 2.662066e-03 2.473999e+01
      vertex 4.864719e+00 8.431267e+00 2.473999e+01
      vertex 4.131160e+00 7.160507e+00 2.499370e+01
    endloop
  endfacet
  facet normal 1.634004e-01 -2.830179e-01 -9.450932e-01
    outer loop
      vertex 4.131160e+00 7.160507e+00 2.499370e+01
      vertex -8.266761e+00 2.562437e-03 2.499370e+01
      vertex -9.734053e+00 2.662066e-03 2.473999e+01
    endloop
  endfacet
  facet normal 1.634651e-01 2.824723e-01 -9.452452e-01
    outer loop
      vertex 4.864716e+00 -8.425937e+00 2.474585e+01
      vertex -9.734053e+00 2.662066e-03 2.473999e+01
      vertex -8.266761e+00 2.562437e-03 2.499370e+01
    endloop
  endfacet
  facet normal 1.634657e-01 2.824733e-01 -9.452448e-01
    outer loop
      vertex -8.266761e+00 2.562437e-03 2.499370e+01
      vertex 4.131157e+00 -7.155378e+00 2.499869e+01
      vertex 4.864716e+00 -8.425937e+00 2.474585e+01
    endloop
  endfacet
  facet normal 1.512383e-01 2.626157e-01 9.529743e-01
    outer loop
      vertex 9.734050e+00 -2.661106e-03 1.237274e+01
      vertex -4.864719e+00 8.425940e+00 1.236687e+01
      vertex -4.131160e+00 7.155378e+00 1.260059e+01
    endloop
  endfacet
  facet normal 1.512382e-01 2.626154e-01 9.529743e-01
    outer loop
      vertex -4.131160e+00 7.155378e+00 1.260059e+01
      vertex 8.266761e+00 -2.560676e-03 1.260557e+01
      vertex 9.734050e+00 -2.661106e-03 1.237274e+01
    endloop
  endfacet
  facet normal -3.030507e-01 3.315754e-04 9.529743e-01
    outer loop
      vertex -4.864719e+00 8.425940e+00 1.236687e+01
      vertex -4.864722e+00 -8.431267e+00 1.237274e+01
      vertex -4.131164e+00 -7.160504e+00 1.260557e+01
    endloop
  endfacet
  facet normal -3.030515e-01 3.315339e-04 9.529741e-01
    outer loop
      vertex -4.131164e+00 -7.160504e+00 1.260557e+01
      vertex -4.131160e+00 7.155378e+00 1.260059e+01
      vertex -4.864719e+00 8.425940e+00 1.236687e+01
    endloop
  endfacet
  facet normal 1.512318e-01 -2.619414e-01 9.531609e-01
    outer loop
      vertex -4.864722e+00 -8.431267e+00 1.237274e+01
      vertex 9.734050e+00 -2.661106e-03 1.237274e+01
      vertex 8.266761e+00 -2.560676e-03 1.260557e+01
    endloop
  endfacet
  facet normal 1.512315e-01 -2.619409e-01 9.531611e-01
    outer loop
      vertex 8.266761e+00 -2.560676e-03 1.260557e+01
      vertex -4.131164e+00 -7.160504e+00 1.260557e+01
      vertex -4.864722e+00 -8.431267e+00 1.237274e+01
    endloop
  endfacet
endsolid Default
